# AST/ASF file generated using VICON BodyLanguage
# -----------------------------------------------
:version 1.10
:name VICON
:units
  mass 1.0
  length 0.45
  angle deg
:documentation
   .ast/.asf automatically generated from VICON data using
   VICON BodyBuilder and BodyLanguage model FoxedUp or BRILLIANT.MOD
:root
   order TX TY TZ RX RY RZ
   axis XYZ
   position 0 0 0  
   orientation 0 0 0 
:bonedata
  begin
     id 1 
     name lhipjoint
     direction 0.561001 -0.76473 0.316963 
     length 2.4722 
     axis 0 0 0  XYZ
  end
  begin
     id 2 
     name lfemur
     direction 0.34202 -0.939693 0  
     length 7.59403  
     axis 0 0 20  XYZ
    dof rx ry rz
    limits (-160.0 20.0)
           (-70.0 70.0)
           (-60.0 70.0)
  end
  begin
     id 3 
     name ltibia
     direction 0.34202 -0.939693 0   
     length 7.89655   
     axis 0 0 20   XYZ
    dof rx
    limits (-10.0 170.0)
  end
  begin
     id 4 
     name lfoot
     direction 0.061296 -0.168409 0.98381   
     length 2.73287   
     axis -90 7.62852e-016 20   XYZ
    dof rx rz
    limits (-45.0 90.0)
           (-70.0 20.0)
  end
  begin
     id 5 
     name ltoes
     direction 1.53547e-011 -4.21984e-011 1   
     length 1.37057   
     axis -90 7.62852e-016 20   XYZ
    dof rx
    limits (-90.0 20.0)
  end
  begin
     id 6 
     name rhipjoint
     direction -0.559611 -0.765599 0.317323   
     length 2.46939  
     axis 0 0 0  XYZ 
  end
  begin
     id 7 
     name rfemur
     direction -0.34202 -0.939693 0   
     length 7.53712   
     axis 0 0 -20   XYZ
    dof rx ry rz
    limits (-160.0 20.0)
           (-70.0 70.0)
           (-70.0 60.0)
  end
  begin
     id 8 
     name rtibia
     direction -0.34202 -0.939693 0   
     length 8.12549   
     axis 0 0 -20   XYZ
    dof rx
    limits (-10.0 170.0)
 end
 begin
     id 9 
     name rfoot
     direction -0.066984 -0.184037 0.980634   
     length 2.67541  
     axis -90 -7.62852e-016 -20   XYZ
    dof rx rz
    limits (-45.0 90.0)
           (-20.0 70.0)
  end
  begin
     id 10 
     name rtoes
     direction -1.53549e-011 -4.21786e-011 1   
     length 1.34085   
     axis -90 -7.62852e-016 -20   XYZ
    dof rx
    limits (-90.0 20.0)
  end
  begin
     id 11 
     name lowerback
     direction -0.0522728 0.992594 -0.109658   
     length 2.05633   
     axis 0 0 0   XYZ
    dof rx ry rz
    limits (-20.0 45.0)
           (-30.0 30.0)
           (-30.0 30.0)
  end
  begin
     id 12 
     name upperback
     direction 0.00589338 0.999977 0.00335704   
     length 2.05845   
     axis 0 0 0   XYZ
    dof rx ry rz
    limits (-20.0 45.0)
           (-30.0 30.0)
           (-30.0 30.0)
  end
  begin
     id 13 
     name thorax
     direction 0.0292928 0.998059 0.0549487   
     length 2.09281   
     axis 0 0 0   XYZ
    dof rx ry rz
    limits (-20.0 45.0)
           (-30.0 30.0)
           (-30.0 30.0)
  end
  begin
     id 14 
     name lowerneck
     direction 0.0356368 0.980775 0.191858   
     length 1.84767   
     axis 0 0 0   XYZ
    dof rx ry rz
    limits (-20.0 45.0)
           (-30.0 30.0)
           (-30.0 30.0)
  end
  begin
     id 15 
     name upperneck
     direction -0.0227605 0.98931 -0.14404   
     length 1.89582   
     axis 0 0 0   XYZ
    dof rx ry rz
    limits (-20.0 45.0)
           (-30.0 30.0)
           (-30.0 30.0)
  end
  begin
     id 16
     name head
     direction -0.00932985 0.997511 -0.0698904  
     length 1.90213  
     axis 0 0 0   XYZ
    dof rx ry rz
    limits (-20.0 45.0)
           (-30.0 30.0)
           (-30.0 30.0)
  end
  begin
     id 17 
     name lclavicle
     direction 0.873442 0.479511 0.0846686  
     length 3.41193  
     axis 0 0 0   XYZ
    dof ry rz
    limits (-20.0 10.0)
           (0.0 20.0)
  end
  begin
     id 18 
     name lhumerus
     direction 1 -4.4897e-011 -5.62117e-018   
     length 5.59864   
     axis 180 -30 -90   XYZ
    dof rx ry rz
    limits (-60.0 90.0)
           (-90.0 90.0)
           (-90.0 90.0)
  end
  begin
     id 19
     name lradius
     direction 1 -4.48966e-011 -6.26295e-027   
     length 3.59542   
     axis 180 -30 -90   XYZ
    dof rx
    limits (-10.0 170.0)
  end
  begin
     id 20
     name lwrist
     direction 1 -4.48947e-011 -1.74096e-026   
     length 1.79771   
     axis 1.04567e-014 90 90   XYZ
    dof ry
    limits (-180.0 0.0)
 end
  begin
     id 21 
     name lhand
     direction 1 -4.49085e-011 -3.48469e-026   
     length 0.572014   
     axis 2.22196e-014 90 90   XYZ
    dof rx rz
    limits (-90.0 90.0)
           (-45.0 45.0)
  end
  begin
     id 22 
     name lfingers
     direction 1 -4.48884e-011 -6.96135e-026   
     length 0.461173   
     axis 4.44383e-014 90 90   XYZ
    dof rx
    limits (0.0 90.0)
  end
  begin
     id 23
     name lthumb
     direction 0.707107 -6.34976e-011 0.707107   
     length 0.662154   
     axis -90 45 -5.4397e-014   XYZ
    dof rx rz
    limits (-45.0 45.0)
           (-45.0 45.0)
  end
  begin
     id 24 
     name rclavicle
     direction -0.890242 0.443271 0.104786   
     length 3.46753  
     axis 0 0 0   XYZ 
    dof ry rz
    limits (-10.0 20.0)
           (-20.0 0.0)
  end
  begin
     id 25 
     name rhumerus
     direction -1 -4.48963e-011 -5.41723e-018  
     length 5.8094   
     axis 180 30 90   XYZ
    dof rx ry rz
    limits (-90.0 60.0)
           (-90.0 90.0)
           (-90.0 90.0)
  end
  begin
     id 26 
     name rradius
     direction -1 -4.48958e-011 -6.51059e-027   
     length 3.66953   
     axis 180 30 90   XYZ
    dof rx
    limits (-10.0 170.0)
  end
  begin
     id 27 
     name rwrist
     direction -1 -4.48975e-011 -1.74124e-026   
     length 1.83476   
     axis 1.04567e-014 -90 -90   XYZ
    dof ry
    limits (-180.0 0.0)
  end
  begin
     id 28
     name rhand
     direction -1 -4.49013e-011 -3.48326e-026   
     length 0.57843   
     axis 2.22196e-014 -90 -90   XYZ
    dof rx rz
    limits (-90.0 90.0)
           (-45.0 45.0)
  end
  begin
     id 29
     name rfingers
     direction -1 -4.49023e-011 -6.9669e-026   
     length 0.466345   
     axis 4.44383e-014 -90 -90   XYZ
    dof rx
    limits (0.0 90.0)
  end
  begin
     id 30
     name rthumb
     direction -0.707107 -6.34926e-011 0.707107   
     length 0.669581   
     axis -90 -45 5.4397e-014   XYZ
    dof rx rz
    limits (-45.0 45.0)
           (-45.0 45.0)
  end
:hierarchy
  begin
    root lhipjoint rhipjoint lowerback
    lhipjoint lfemur
    lfemur ltibia
    ltibia lfoot
    lfoot ltoes
    rhipjoint rfemur
    rfemur rtibia
    rtibia rfoot
    rfoot rtoes
    lowerback upperback
    upperback thorax
    thorax lowerneck lclavicle rclavicle
    lowerneck upperneck
    upperneck head
    lclavicle lhumerus
    lhumerus lradius
    lradius lwrist
    lwrist lhand lthumb
    lhand lfingers
    rclavicle rhumerus
    rhumerus rradius
    rradius rwrist
    rwrist rhand rthumb
    rhand rfingers
  end

#!OML:ASF H:\SkateBoarding\Project 1\Capture day 1\Session 1\Skater.ASF
:FULLY-SPECIFIED
:DEGREES
292
root 3.49907 21.2116 32.9703 -6.31792 63.9528 -17.5068
lowerback 34.0199 -1.8966 -0.913378
upperback 4.2221 -2.64008 -1.71518
thorax -12.7476 -1.02322 -0.313351
lowerneck -17.1541 0.519941 9.98532
upperneck 38.8474 -4.08824 5.70433
head 17.2168 0.900017 0.124654
rclavicle 3.02153e-014 -3.49861e-014
rhumerus -60.8484 -43.8803 65.5237
rradius 34.7037
rwrist -48.7504
rhand -50.5609 -26.3914
rfingers 7.12502
rthumb -23.1274 -55.0232
lclavicle 3.02153e-014 -3.49861e-014
lhumerus -66.1378 25.1614 -23.257
lradius 31.9003
lwrist 48.6651
lhand -29.8084 43.6577
lfingers 7.12502
lthumb -3.13238 73.6144
rfemur -68.8774 -14.4039 27.5499
rtibia 87.2531
rfoot 39.7748 -7.68155
rtoes 17.5311
lfemur -41.4772 11.1719 3.74087
ltibia 81.9676
lfoot -29.0855 -0.42409
ltoes -23.6724
293
root 3.4972 21.2112 33.2217 -4.87902 64.3261 -16.3944
lowerback 33.6944 -1.79005 -1.45552
upperback 4.32004 -2.70375 -1.83655
thorax -12.4867 -1.03197 -0.13613
lowerneck -17.4625 0.603669 10.3276
upperneck 38.907 -4.05284 5.47468
head 17.3177 0.941675 -0.0286069
rclavicle -8.42847e-014 -7.95139e-015
rhumerus -61.2966 -43.1337 65.0825
rradius 35.6087
rwrist -49.344
rhand -51.5265 -25.7195
rfingers 7.12502
rthumb -24.0536 -54.2321
lclavicle -8.42847e-014 -7.95139e-015
lhumerus -67.052 24.8382 -22.7667
lradius 32.3604
lwrist 49.8044
lhand -30.0995 43.3523
lfingers 7.12502
lthumb -3.41352 73.3047
rfemur -67.2055 -14.0054 26.6056
rtibia 83.5464
rfoot 37.2011 -5.78502
rtoes 16.8301
lfemur -42.2929 11.7893 1.87985
ltibia 80.6942
lfoot -32.1278 2.33656
ltoes -25.6483
294
root 3.49849 21.1926 33.4791 -3.19493 64.7276 -14.9546
lowerback 33.4534 -1.69406 -2.26312
upperback 4.34293 -2.87312 -1.92955
thorax -12.3266 -1.07693 0.257954
lowerneck -17.6024 0.726084 10.5563
upperneck 38.9825 -3.90499 5.28669
head 17.3894 1.01493 -0.122414
rclavicle 4.92986e-014 4.6118e-014
rhumerus -60.854 -42.1761 63.3526
rradius 36.709
rwrist -48.4266
rhand -51.562 -25.0904
rfingers 7.12502
rthumb -24.0875 -53.5985
lclavicle 4.92986e-014 4.6118e-014
lhumerus -67.8556 24.0197 -21.8889
lradius 32.9842
lwrist 50.5398
lhand -30.4198 43.373
lfingers 7.12502
lthumb -3.72283 73.3202
rfemur -65.365 -13.6137 25.5652
rtibia 79.6471
rfoot 34.5718 -4.24783
rtoes 17.1332
lfemur -42.5327 11.7049 0.283131
ltibia 78.5903
lfoot -34.8239 2.77311
ltoes -22.7068
295
root 3.50426 21.1875 33.7439 -1.39388 65.0919 -13.3581
lowerback 33.1675 -1.55976 -3.13245
upperback 4.36949 -3.00566 -2.00335
thorax -12.1344 -1.10481 0.68848
lowerneck -17.7612 0.802137 10.5314
upperneck 39.0174 -3.8222 5.31712
head 17.4542 1.05392 -0.0864876
rclavicle 6.83819e-014 -1.90833e-014
rhumerus -59.8709 -40.8142 60.7448
rradius 37.9864
rwrist -46.7872
rhand -50.8329 -24.8021
rfingers 7.12502
rthumb -23.3883 -53.401
lclavicle 6.83819e-014 -1.90833e-014
lhumerus -68.317 23.1046 -20.5764
lradius 33.5319
lwrist 50.6785
lhand -30.1608 43.2606
lfingers 7.12502
lthumb -3.47278 73.212
rfemur -62.9795 -13.1302 24.5007
rtibia 75.3704
rfoot 31.5717 -4.89584
rtoes 16.9587
lfemur -42.8081 11.0527 -0.875398
ltibia 76.1032
lfoot -34.7832 5.0252
ltoes -25.6804
296
root 3.51357 21.1716 34.0141 0.55002 65.4262 -11.5619
lowerback 32.867 -1.37438 -4.08454
upperback 4.37004 -3.10258 -2.12023
thorax -11.9589 -1.115 1.10172
lowerneck -17.7899 0.785052 10.5093
upperneck 38.9454 -3.88028 5.42387
head 17.4266 1.03938 -0.0468068
rclavicle 1.59028e-015 -3.18055e-014
rhumerus -58.5843 -39.1168 57.7131
rradius 39.2018
rwrist -45.0256
rhand -50.431 -24.6532
rfingers 7.12502
rthumb -23.0027 -53.3006
lclavicle 1.59028e-015 -3.18055e-014
lhumerus -68.3526 22.0014 -18.8796
lradius 34.0019
lwrist 50.2836
lhand -29.7499 43.0932
lfingers 7.12502
lthumb -3.07591 73.0508
rfemur -60.5657 -12.5055 23.3389
rtibia 71.0414
rfoot 28.0875 -4.78932
rtoes 16.138
lfemur -42.4301 9.92421 -1.75729
ltibia 72.8351
lfoot -33.4677 3.27735
ltoes -22.1429
297
root 3.53138 21.1068 34.2849 2.36662 65.7374 -9.86497
lowerback 32.522 -1.12418 -4.84821
upperback 4.3746 -3.04424 -2.25381
thorax -11.7755 -1.06457 1.33518
lowerneck -17.8046 0.613408 10.3158
upperneck 38.7682 -4.16506 5.70434
head 17.3417 0.928568 0.0548001
rclavicle -6.99722e-014 3.18055e-015
rhumerus -57.424 -37.0347 54.836
rradius 40.4229
rwrist -43.9738
rhand -50.2982 -24.6906
rfingers 7.12502
rthumb -22.8753 -53.3538
lclavicle -6.99722e-014 3.18055e-015
lhumerus -67.8002 21.0579 -16.8771
lradius 34.345
lwrist 49.3453
lhand -29.2209 42.9681
lfingers 7.12502
lthumb -2.56504 72.9324
rfemur -58.3114 -11.7511 22.099
rtibia 66.7866
rfoot 24.7508 -3.60608
rtoes 15.4262
lfemur -41.4365 8.89181 -2.60799
ltibia 68.8207
lfoot -32.7081 0.913728
ltoes -22.8246
